<?xml version="1.0" standalone="no"?>
<!DOCTYPE svg PUBLIC "-//W3C//DTD SVG 20010904//EN"
 "http://www.w3.org/TR/2001/REC-SVG-20010904/DTD/svg10.dtd">
<svg version="1.0" xmlns="http://www.w3.org/2000/svg"
 width="1000.000000pt" height="1000.000000pt" viewBox="0 0 1000.000000 1000.000000"
 preserveAspectRatio="xMidYMid meet">
<metadata>
Created by potrace 1.11, written by Peter Selinger 2001-2013
</metadata>
<g transform="translate(0.000000,1000.000000) scale(0.100000,-0.100000)"
fill="#000000" stroke="none">
<path d="M0 5000 l0 -5000 5000 0 5000 0 0 5000 0 5000 -5000 0 -5000 0 0
-5000z m3814 4521 c17 -5 58 -17 91 -27 76 -23 155 -59 225 -103 64 -40 187
-156 235 -221 37 -51 115 -194 115 -212 0 -18 98 -215 143 -288 100 -161 285
-362 437 -475 85 -64 238 -156 308 -186 26 -11 60 -27 77 -34 69 -32 244 -82
360 -105 96 -18 377 -24 485 -10 148 20 297 24 375 10 281 -50 515 -216 649
-461 82 -151 110 -278 103 -473 -2 -77 -9 -154 -15 -171 -5 -16 -18 -56 -27
-87 -9 -32 -21 -60 -26 -64 -5 -3 -9 -12 -9 -19 0 -20 -73 -138 -130 -210 -26
-33 -69 -94 -97 -136 -52 -79 -153 -278 -153 -301 0 -8 -4 -18 -9 -23 -5 -6
-16 -37 -26 -70 -9 -33 -21 -71 -26 -85 -4 -14 -15 -54 -23 -90 -111 -494 9
-1023 326 -1436 163 -212 218 -363 218 -599 0 -226 -61 -405 -195 -572 -125
-156 -295 -264 -495 -314 -94 -23 -295 -25 -425 -4 -188 31 -483 8 -680 -53
-528 -162 -922 -514 -1130 -1007 -77 -185 -163 -310 -276 -401 -111 -90 -188
-132 -339 -183 -70 -23 -234 -34 -344 -22 -57 6 -114 15 -127 19 -13 5 -42 15
-64 22 -22 7 -75 30 -118 51 -246 123 -420 355 -472 628 -18 90 -20 271 -4
338 34 146 65 225 126 320 135 213 328 344 593 404 72 17 269 16 345 -1 89
-19 406 -17 520 4 230 43 400 104 590 210 313 176 611 515 734 836 54 139 92
206 196 340 81 104 225 363 225 404 0 6 4 16 8 21 15 17 64 173 81 255 55 278
55 468 0 740 -46 229 -170 488 -334 705 -67 89 -135 199 -135 220 0 8 -4 16
-9 19 -5 3 -12 18 -15 33 -8 30 -102 224 -138 283 -161 262 -471 538 -743 659
-16 7 -41 19 -55 26 -76 38 -300 100 -451 124 -87 14 -381 14 -439 -1 -71 -17
-364 -14 -430 5 -304 88 -520 283 -626 563 -74 199 -72 455 6 649 113 283 338
472 660 554 46 12 315 13 354 2z m-11 -3327 c96 -21 214 -62 259 -91 21 -13
40 -23 43 -23 16 0 128 -92 187 -153 101 -104 175 -237 223 -402 14 -46 18
-96 18 -215 1 -155 0 -158 -45 -300 -27 -89 -91 -202 -156 -279 -123 -144
-295 -251 -487 -303 -67 -18 -330 -17 -410 1 -159 36 -327 130 -441 246 -50
51 -147 191 -172 248 -62 141 -84 246 -83 392 1 233 97 467 257 629 80 81 261
194 349 217 158 43 187 48 283 48 60 1 133 -6 175 -15z"/>
</g>
</svg>
